# xmcd CD database file
#
# Track frame offsets:
#	150
#	14123
#	26673
#	42085
#	53664
#	68482
#	80978
#	89015
#	100699
#	111753
#	125491
#	138195
#	151666
#	164660
#	179616
#	192430
#	203043
#	218210
#	231357
#
# Disc length: 3368 seconds
#
# Revision: 0
# Processed by: cddbd v1.5.2PL0 Copyright (c) Steve Scherf et al.
# Submitted via: CDex 1.70beta2
#
DISCID=0e0d2613
DTITLE=Johnny Cash - The Definitive Collection
DYEAR=2008
DGENRE=Country
TTITLE0=Highwayman
TTITLE1=Sixteen Tons
TTITLE2=The Night Hank Williams Came To Town
TTITLE3=Get Rhythm
TTITLE4=Long Black Veil
TTITLE5=Ring Of Fire
TTITLE6=Guess Things Happen That Way
TTITLE7=I Walk The Line
TTITLE8=Cry Cry Cry
TTITLE9=As Long As I Live
TTITLE10=Ballad Of A Teenage Queen
TTITLE11=Where Did We Go Right
TTITLE12=That Old Wheel
TTITLE13=Cats In The Cradle
TTITLE14=Family Bible
TTITLE15=Hey Porter
TTITLE16=Goin' By The Book
TTITLE17=Wanted Man
TTITLE18=The Wanderer
EXTD=YEAR: 2008
EXTT0=
EXTT1=
EXTT2=
EXTT3=
EXTT4=
EXTT5=
EXTT6=
EXTT7=
EXTT8=
EXTT9=
EXTT10=
EXTT11=
EXTT12=
EXTT13=
EXTT14=
EXTT15=
EXTT16=
EXTT17=
EXTT18=
PLAYORDER=
